<svg xmlns="http://www.w3.org/2000/svg" x="0px" y="0px" width="100" height="100" viewBox="0 0 72 72">
  <path fill="red" d="M 32.5 9 C 28.364 9 25 12.364 25 16.5 L 25 18 L 17 18 C 14.791 18 13 19.791 13 22 C 13 24.209 14.791 26 17 26 L 17.232422 26 L 18.671875 51.916016 C 18.923875 56.449016 22.67875 60 27.21875 60 L 44.78125 60 C 49.32125 60 53.076125 56.449016 53.328125 51.916016 L 54.767578 26 L 55 26 C 57.209 26 59 24.209 59 22 C 59 19.791 57.209 18 55 18 L 47 18 L 47 16.5 C 47 12.364 43.636 9 39.5 9 L 32.5 9 z M 32.5 16 L 39.5 16 C 39.775 16 40 16.224 40 16.5 L 40 18 L 32 18 L 32 16.5 C 32 16.224 32.225 16 32.5 16 z M 24.242188 26 L 47.757812 26 L 46.339844 51.525391 C 46.292844 52.352391 45.60825 53 44.78125 53 L 27.21875 53 C 26.39175 53 25.707156 52.353344 25.660156 51.527344 L 24.242188 26 z"></path>
</svg>
